<?xml version="1.0" encoding="UTF-8"?>
<svg version="1.1" xmlns="http://www.w3.org/2000/svg" width="1600" height="1600">
<path d="M0 0 C528 0 1056 0 1600 0 C1600 187.11 1600 374.22 1600 567 C1336 567 1072 567 800 567 C800 600 800 633 800 667 C678.89 667 557.78 667 433 667 C433 634 433 601 433 567 C290.11 567 147.22 567 0 567 C0 379.89 0 192.78 0 0 Z " fill="#D50000" transform="translate(0,500)"/>
<path d="M0 0 C175.89 0 351.78 0 533 0 C533 121.11 533 242.22 533 367 C510.89 367 488.78 367 466 367 C466 278.89 466 190.78 466 100 C433.33 100 400.66 100 367 100 C367 188.11 367 276.22 367 367 C333.67 367 300.34 367 266 367 C266 278.89 266 190.78 266 100 C233 100 200 100 166 100 C166 187.78 166 275.56 166 366 C111.22 366 56.44 366 0 366 C0 245.22 0 124.44 0 0 Z " fill="#FEFEFE" transform="translate(967,600)"/>
<path d="M0 0 C110.22 0 220.44 0 334 0 C334 121.11 334 242.22 334 367 C278.89 367 223.78 367 167 367 C167 400 167 433 167 467 C111.89 467 56.78 467 0 467 C0 312.89 0 158.78 0 0 Z " fill="#FEFEFE" transform="translate(533,600)"/>
<path d="M0 0 C109.89 0 219.78 0 333 0 C333 120.78 333 241.56 333 366 C311.22 366 289.44 366 267 366 C267 278.22 267 190.44 267 100 C234 100 201 100 167 100 C167 188.11 167 276.22 167 367 C111.89 367 56.78 367 0 367 C0 245.89 0 124.78 0 0 Z " fill="#FEFEFE" transform="translate(100,600)"/>
<path d="M0 0 C33 0 66 0 100 0 C100 55.11 100 110.22 100 167 C67 167 34 167 0 167 C0 111.89 0 56.78 0 0 Z " fill="#D50000" transform="translate(700,700)"/>
</svg>
