<svg xmlns="http://www.w3.org/2000/svg" viewBox="4.050000190734863 14.890000343322754 351.80999755859375 40.54999923706055" data-asc="1.0478515625" width="351.80999755859375" height="40.54999923706055"><defs/><g fill="#22b5bf"><g transform="translate(0, 0)"><path d="M24.98 46.80L24.98 43.68L8.45 36.84L7.20 36.38L8.42 35.91L24.98 29.03L24.98 25.93L4.05 35.16L4.05 37.55L24.98 46.80ZM46.66 37.52L54.44 52.39L57.50 52.39L57.52 52.08L49.39 36.84Q50.93 36.21 52.21 35.30Q53.49 34.40 54.42 33.23Q55.35 32.03 55.87 30.57Q56.40 29.10 56.40 27.29Q56.40 24.80 55.51 22.88Q54.61 20.95 53.08 19.63Q51.51 18.29 49.44 17.59Q47.36 16.89 45.02 16.85L34.99 16.85L34.99 52.39L37.87 52.39L37.87 37.52L46.66 37.52M37.87 35.01L37.87 19.36L45.02 19.36Q46.80 19.38 48.35 19.92Q49.90 20.46 51.03 21.46Q52.17 22.49 52.82 23.95Q53.47 25.42 53.47 27.27Q53.47 28.98 52.87 30.38Q52.27 31.79 51.22 32.79Q50.15 33.81 48.72 34.40Q47.29 34.99 45.63 35.01L37.87 35.01ZM76.00 52.88Q79.30 52.88 81.79 51.59Q84.28 50.29 85.79 48.19L83.94 46.78Q82.52 48.54 80.54 49.46Q78.56 50.39 76.12 50.39Q74.00 50.37 72.27 49.54Q70.53 48.71 69.29 47.27Q68.07 45.90 67.37 44.09Q66.67 42.29 66.58 40.19L66.58 39.38L86.35 39.38L86.35 37.60Q86.35 35.08 85.63 32.87Q84.91 30.66 83.54 29.00Q82.15 27.37 80.11 26.43Q78.08 25.49 75.46 25.49Q72.97 25.49 70.84 26.51Q68.70 27.54 67.11 29.35Q65.50 31.15 64.59 33.59Q63.67 36.04 63.67 38.87L63.67 39.92Q63.67 42.58 64.58 44.93Q65.48 47.29 67.11 49.07Q68.73 50.83 71.00 51.86Q73.27 52.88 76.00 52.88M75.46 28.00Q77.34 28.00 78.81 28.72Q80.27 29.44 81.30 30.64Q82.30 31.84 82.87 33.42Q83.45 35.01 83.45 36.60L83.45 36.87L66.72 36.87Q66.97 34.96 67.70 33.34Q68.43 31.71 69.58 30.52Q70.70 29.35 72.19 28.67Q73.68 28.00 75.46 28.00ZM105.47 50.39Q103.13 50.39 101.50 49.46Q99.88 48.54 98.88 47.02Q97.83 45.51 97.36 43.60Q96.90 41.70 96.88 39.70L96.88 38.67Q96.90 36.69 97.36 34.79Q97.83 32.89 98.88 31.35Q99.90 29.86 101.51 28.93Q103.13 28.00 105.44 28.00Q107.01 28.00 108.36 28.52Q109.72 29.03 110.74 29.93Q111.74 30.86 112.34 32.12Q112.94 33.37 113.04 34.86L115.82 34.86Q115.75 32.84 114.94 31.10Q114.14 29.37 112.77 28.13Q111.38 26.88 109.51 26.18Q107.64 25.49 105.44 25.49Q102.54 25.49 100.39 26.59Q98.24 27.69 96.83 29.49Q95.39 31.35 94.68 33.73Q93.97 36.11 93.95 38.67L93.95 39.70Q93.97 42.26 94.68 44.64Q95.39 47.02 96.83 48.83Q98.27 50.68 100.42 51.78Q102.56 52.88 105.47 52.88Q107.47 52.88 109.31 52.22Q111.16 51.56 112.57 50.42Q113.96 49.27 114.84 47.68Q115.72 46.09 115.82 44.21L113.04 44.21Q112.92 45.63 112.28 46.78Q111.65 47.92 110.62 48.71Q109.57 49.54 108.24 49.96Q106.91 50.39 105.47 50.39ZM127.69 31.13L127.69 14.89L124.76 14.89L124.76 52.39L127.69 52.39L127.69 34.23Q128.10 32.98 128.87 31.88Q129.64 30.79 130.66 29.98Q131.76 29.08 133.12 28.56Q134.47 28.05 135.99 28.05Q137.72 28.03 139.00 28.55Q140.28 29.08 141.14 30.08Q141.94 31.03 142.33 32.41Q142.72 33.79 142.75 35.50L142.75 52.39L145.68 52.39L145.68 35.52Q145.65 33.13 145.07 31.26Q144.48 29.39 143.36 28.10Q142.21 26.81 140.54 26.15Q138.87 25.49 136.69 25.49Q135.03 25.49 133.57 25.98Q132.10 26.46 130.91 27.34Q129.91 28.05 129.09 29.02Q128.27 29.98 127.69 31.13ZM172.90 52.39L176.03 52.39L176.03 52.08Q175.68 50.88 175.45 49.52Q175.22 48.17 175.20 46.85L175.20 34.08Q175.17 31.93 174.39 30.32Q173.61 28.71 172.24 27.61Q170.87 26.56 169.04 26.03Q167.21 25.49 165.11 25.49Q163.01 25.49 161.17 26.07Q159.33 26.66 157.93 27.69Q156.54 28.74 155.71 30.15Q154.88 31.57 154.81 33.25L157.74 33.28Q157.79 32.03 158.40 31.04Q159.01 30.05 160.01 29.37Q160.99 28.69 162.28 28.32Q163.57 27.95 164.99 27.95Q166.53 27.95 167.86 28.36Q169.19 28.76 170.17 29.52Q171.14 30.27 171.70 31.41Q172.27 32.54 172.29 34.03L172.29 37.01L166.55 37.01Q164.09 37.01 161.84 37.46Q159.59 37.92 157.91 38.92Q156.20 39.92 155.19 41.52Q154.17 43.12 154.17 45.39Q154.17 47.07 154.86 48.46Q155.54 49.85 156.71 50.81Q157.89 51.78 159.50 52.33Q161.11 52.88 162.94 52.88Q164.40 52.88 165.76 52.58Q167.11 52.27 168.33 51.68Q169.53 51.12 170.54 50.31Q171.56 49.49 172.31 48.49Q172.36 49.51 172.50 50.51Q172.63 51.51 172.90 52.39M163.28 50.27Q161.99 50.27 160.86 49.90Q159.74 49.54 158.91 48.88Q158.06 48.22 157.58 47.25Q157.10 46.29 157.10 45.12Q157.08 43.63 157.74 42.60Q158.40 41.58 159.52 40.87Q160.89 39.99 162.84 39.65Q164.79 39.31 166.97 39.28L172.29 39.28L172.29 45.07Q171.73 46.24 170.83 47.20Q169.92 48.17 168.75 48.85Q167.58 49.54 166.19 49.90Q164.79 50.27 163.28 50.27ZM202.22 25.49Q198.63 25.46 195.98 26.98Q193.33 28.49 191.80 31.20L191.77 30.03L191.60 25.98L188.82 25.98L188.82 52.39L191.85 52.39L191.80 35.47Q192.29 33.67 193.20 32.34Q194.12 31.01 195.36 30.13Q196.66 29.22 198.28 28.80Q199.90 28.37 201.76 28.37Q202.83 28.37 203.86 28.49Q204.88 28.61 205.88 28.83L206.27 26.00Q205.52 25.76 204.41 25.62Q203.30 25.49 202.22 25.49ZM224.51 19.21L221.53 19.21L221.53 25.98L214.18 25.98L214.18 28.39L221.53 28.39L221.53 44.95Q221.56 47.12 222.18 48.62Q222.80 50.12 223.90 51.07Q225 52.03 226.50 52.45Q228.00 52.88 229.76 52.88Q230.62 52.88 231.48 52.82Q232.35 52.76 233.15 52.64Q233.79 52.54 234.36 52.38Q234.94 52.22 235.40 52.03L234.94 49.80Q234.57 49.85 234.08 49.94Q233.59 50.02 233.06 50.10Q232.37 50.20 231.67 50.24Q230.96 50.29 230.25 50.29Q229.05 50.29 228.02 50.02Q226.98 49.76 226.20 49.12Q225.42 48.51 224.96 47.50Q224.51 46.48 224.49 44.95L224.49 28.39L234.28 28.39L234.28 25.98L224.49 25.98L224.51 19.21ZM263.18 45.65Q263.18 46.58 262.78 47.34Q262.38 48.10 261.65 48.68Q260.52 49.54 258.98 49.96Q257.45 50.39 255.71 50.39Q254.39 50.39 253.02 50.13Q251.64 49.88 250.49 49.24Q249.34 48.61 248.55 47.57Q247.75 46.53 247.61 44.97L244.68 44.97Q244.75 46.78 245.62 48.24Q246.48 49.71 248.00 50.73Q249.46 51.73 251.46 52.31Q253.47 52.88 255.71 52.88Q257.79 52.88 259.79 52.37Q261.79 51.86 263.31 50.78Q264.55 49.88 265.33 48.55Q266.11 47.22 266.11 45.51Q266.11 43.70 265.30 42.42Q264.48 41.14 263.11 40.23Q261.72 39.33 259.89 38.75Q258.06 38.16 256.05 37.72Q254.49 37.40 253.06 37.00Q251.64 36.60 250.61 35.99Q249.58 35.42 249.05 34.58Q248.51 33.74 248.51 32.59Q248.51 31.45 249.12 30.58Q249.73 29.71 250.71 29.15Q251.68 28.56 252.94 28.28Q254.20 28.00 255.54 28.00Q256.96 28.00 258.29 28.37Q259.62 28.74 260.67 29.42Q261.69 30.10 262.34 31.10Q262.99 32.10 263.01 33.37L265.97 33.37Q265.89 31.49 265.05 30.03Q264.21 28.56 262.82 27.54Q261.43 26.54 259.56 26.01Q257.69 25.49 255.54 25.49Q253.64 25.49 251.84 25.98Q250.05 26.46 248.71 27.34Q247.29 28.30 246.45 29.64Q245.61 30.98 245.61 32.69Q245.61 34.50 246.45 35.75Q247.29 37.01 248.66 37.82Q250.12 38.67 251.81 39.21Q253.49 39.75 255.52 40.16Q257.13 40.50 258.62 40.99Q260.11 41.48 261.16 42.16Q262.11 42.77 262.65 43.64Q263.18 44.51 263.18 45.65ZM309.62 55.44L324.44 16.85L321.70 16.85L306.86 55.44L309.62 55.44ZM334.52 46.75L355.86 37.50L355.86 35.11L334.52 25.88L334.55 28.93L351.15 35.69L352.73 36.30L351.17 36.87L334.55 43.68L334.52 46.75Z"/></g></g></svg>